<svg width="14" height="10" viewBox="0 0 14 10" fill="none" xmlns="http://www.w3.org/2000/svg">
<path d="M1.176 9C0.952 9 0.796 8.956 0.708 8.868C0.628 8.78 0.588 8.628 0.588 8.412V7.848C0.588 7.64 0.628 7.492 0.708 7.404C0.796 7.308 0.952 7.26 1.176 7.26H2.076V3.396L1.404 3.816C1.364 3.848 1.312 3.864 1.248 3.864C1.176 3.864 1.116 3.828 1.068 3.756L0.336 2.628C0.304 2.588 0.288 2.54 0.288 2.484C0.288 2.404 0.332 2.34 0.42 2.292L2.592 0.983999C2.68 0.928 2.76 0.892 2.832 0.875999C2.904 0.852 3.012 0.84 3.156 0.84H3.876C4.108 0.84 4.272 0.892 4.368 0.995999C4.464 1.092 4.512 1.244 4.512 1.452V7.26H5.412C5.636 7.26 5.788 7.308 5.868 7.404C5.956 7.492 6 7.64 6 7.848V8.412C6 8.628 5.956 8.78 5.868 8.868C5.788 8.956 5.636 9 5.412 9H1.176ZM9.91116 9.18C8.78316 9.18 7.89916 8.952 7.25916 8.496C6.62716 8.04 6.31116 7.396 6.31116 6.564C6.31116 6.172 6.41116 5.816 6.61116 5.496C6.81116 5.168 7.08716 4.92 7.43916 4.752C7.13516 4.584 6.90316 4.368 6.74316 4.104C6.59116 3.832 6.51516 3.532 6.51516 3.204C6.51516 2.388 6.80716 1.76 7.39116 1.32C7.97516 0.879999 8.81516 0.659999 9.91116 0.659999C11.0072 0.659999 11.8432 0.879999 12.4192 1.32C13.0032 1.76 13.2952 2.388 13.2952 3.204C13.2952 3.532 13.2192 3.832 13.0672 4.104C12.9152 4.368 12.6872 4.584 12.3832 4.752C12.7352 4.928 13.0112 5.18 13.2112 5.508C13.4112 5.828 13.5112 6.18 13.5112 6.564C13.5112 7.396 13.1912 8.04 12.5512 8.496C11.9112 8.952 11.0312 9.18 9.91116 9.18ZM9.91116 3.948C10.5512 3.948 10.8712 3.704 10.8712 3.216C10.8712 2.92 10.7912 2.708 10.6312 2.58C10.4792 2.452 10.2392 2.388 9.91116 2.388C9.58316 2.388 9.33916 2.452 9.17916 2.58C9.01916 2.708 8.93916 2.92 8.93916 3.216C8.93916 3.704 9.26316 3.948 9.91116 3.948ZM9.91116 7.464C10.7032 7.464 11.0992 7.16 11.0992 6.552C11.0992 6.248 10.9992 6.016 10.7992 5.856C10.5992 5.696 10.3032 5.616 9.91116 5.616C9.11916 5.616 8.72316 5.928 8.72316 6.552C8.72316 7.16 9.11916 7.464 9.91116 7.464Z" fill="#D80000"/>
</svg>
